<svg width="53" height="44" viewBox="0 0 53 44" fill="none" xmlns="http://www.w3.org/2000/svg">
<path id="mail" fill-rule="evenodd" clip-rule="evenodd" d="M5.24504 6.27279C5.63937 5.53889 6.40843 5.0349 7.28196 5.0349H45.6777C46.5513 5.0349 47.3205 5.53899 47.7148 6.27301L26.4801 21.3467L5.24504 6.27279ZM4.96497 12.2199V36.5869C4.96497 37.8735 6.01329 38.9366 7.28196 38.9366H45.6777C46.9464 38.9366 47.9947 37.8735 47.9947 36.5869V12.2202L27.9037 26.482C27.0489 27.0887 25.9112 27.0887 25.0564 26.482L4.96497 12.2199ZM52.9601 7.39393C53.0198 13.8753 52.9997 20.3591 52.9797 26.8422C52.9697 30.0907 52.9597 33.3391 52.9597 36.5869C52.9597 40.6542 49.6885 43.9715 45.6777 43.9715H7.28196C3.27121 43.9715 0 40.6542 0 36.5869V7.38452C0 3.31728 3.27121 0 7.28196 0H45.6777C49.6657 0 52.9225 3.35173 52.9594 7.31646C52.9594 7.31899 52.9594 7.32151 52.9594 7.32403C52.96 7.34734 52.9602 7.37064 52.9601 7.39393Z" fill="white"/>
</svg>
