<svg width="58" height="58" viewBox="0 0 58 58" fill="none" xmlns="http://www.w3.org/2000/svg">
<path id="phone" fill-rule="evenodd" clip-rule="evenodd" d="M17.5342 6.01565C17.0654 5.61324 16.465 5.39403 15.8449 5.40012L15.8184 5.40038L7.94598 5.40025C7.59166 5.40074 7.24147 5.47478 6.91769 5.61751C6.59359 5.76039 6.30325 5.96887 6.06496 6.22939C5.82669 6.48989 5.64567 6.79673 5.53312 7.13024C5.42246 7.45815 5.3803 7.80499 5.40906 8.14947C6.22857 15.8146 8.84381 23.1802 13.0438 29.6507L13.0567 29.6706C16.8733 35.6649 21.9657 40.7475 27.9728 44.557L27.9938 44.5704C34.4478 48.7475 41.7927 51.3577 49.4399 52.1914C49.7876 52.22 50.1374 52.1772 50.4677 52.0657C50.8045 51.952 51.1134 51.7695 51.3748 51.5302C51.6362 51.2909 51.8443 51 51.986 50.6765C52.1154 50.3812 52.1929 50.0122 52.2003 49.4833L52.1987 41.7823L52.1995 41.7146C52.215 41.0936 52.0012 40.4879 51.5977 40.0126C51.1962 39.5396 50.6344 39.2286 50.0175 39.1393C47.3012 38.7807 44.6341 38.1171 42.0669 37.161L42.0609 37.1587C41.6039 36.9873 41.1071 36.9502 40.6295 37.0518C40.1539 37.153 39.7179 37.3875 39.3724 37.7268C39.3709 37.7283 39.3694 37.7297 39.3679 37.7312L36.0454 41.0472C35.1864 41.9045 33.861 42.0833 32.8055 41.4844C25.8125 37.5159 20.0216 31.7368 16.0445 24.7563C15.4419 23.6986 15.6216 22.3685 16.4832 21.5086L19.8101 18.1883C20.15 17.8436 20.3838 17.4097 20.4846 16.9379C20.5859 16.4642 20.5489 15.9715 20.3781 15.5178L20.3758 15.5117C19.4176 12.9489 18.7523 10.2862 18.3928 7.5743C18.3047 6.96956 18.0004 6.41574 17.5342 6.01565ZM15.8065 0.000254059C17.7287 -0.0150976 19.5922 0.665734 21.0512 1.918C22.514 3.17355 23.4705 4.9181 23.7409 6.82702L23.7444 6.85188C24.05 9.1644 24.6167 11.4351 25.4338 13.6206L25.4315 13.6145C25.9669 15.0359 26.0828 16.581 25.7654 18.0664C25.448 19.5518 24.7107 20.9146 23.6417 21.9935L23.631 22.0042L21.7963 23.8353C24.8615 28.6163 28.9312 32.6769 33.7233 35.7355L35.5747 33.8877C36.6557 32.8209 38.0199 32.0863 39.5053 31.7701C40.9896 31.4542 42.5336 31.5692 43.9547 32.1017C46.1444 32.9169 48.4195 33.4824 50.7367 33.7874L50.7608 33.7906C52.6901 34.0622 54.4532 35.0323 55.7143 36.5177C56.9674 37.9938 57.6377 39.8764 57.5987 41.8115L57.6003 49.5312C57.5884 50.5598 57.4344 51.697 56.9322 52.8434C56.4882 53.8567 55.8373 54.7659 55.0215 55.5129C54.2056 56.2599 53.2427 56.8284 52.1946 57.1821C51.1466 57.5359 50.0362 57.6672 48.9345 57.5678L48.8859 57.5634C40.3947 56.6426 32.2379 53.7474 25.0702 49.1106C18.4022 44.8797 12.7478 39.2366 8.50799 32.5809C3.845 25.3938 0.942808 17.2115 0.0367508 8.69623L0.032264 8.65406C-0.0671961 7.55562 0.0639536 6.44858 0.416621 5.40355C0.769284 4.35854 1.33599 3.39864 2.08034 2.58483C2.82468 1.77104 3.73033 1.12118 4.73946 0.676327C5.74857 0.231479 6.83922 0.00129154 7.94202 0.000255132L15.8065 0.000254059Z" fill="white"/>
</svg>
